<svg width="1440" height="779" viewBox="0 0 1440 779" fill="none" xmlns="http://www.w3.org/2000/svg">
<g clip-path="url(#clip0_2072_35)">
<rect width="1440" height="778.444" fill="#E5CFB5"/>
<rect width="1440" height="363" fill="#E5CFB5"/>
<g opacity="0.1">
<path fill-rule="evenodd" clip-rule="evenodd" d="M255.262 523.667C253.711 528.319 252.505 532.799 252.505 533.66C252.505 534.35 258.363 535.039 265.6 535.039C276.627 535.039 303.678 538.14 317.117 541.069C321.769 542.103 333.313 551.235 337.104 557.093C343.306 566.397 336.931 597.411 327.799 602.235C324.87 603.786 324.698 604.303 327.11 608.955C333.313 620.843 328.833 638.762 316.083 652.546C309.88 659.266 309.019 661.161 309.019 668.226C309.019 678.908 304.195 687.695 292.995 697.861C287.482 702.858 283.174 708.371 282.485 711.3C275.248 740.936 229.415 751.618 156.705 740.591C117.593 734.733 117.077 734.56 113.631 738.006C108.117 743.175 101.399 745.071 88.9936 745.071C78.6556 745.071 77.1032 745.588 74.0019 749.55C69.5222 755.236 57.8058 757.304 42.9881 755.236C37.3023 754.375 29.5488 753.686 25.586 753.686C14.5589 753.686 10.7683 749.895 16.1096 744.381C19.9002 740.419 21.6231 739.902 33.3394 739.902C52.9815 739.902 51.6031 745.76 55.9106 646.861C56.9444 624.634 58.1521 595.688 58.8413 582.593C60.2197 553.302 62.115 555.198 31.4459 556.576C4.91185 557.782 -0.25708 556.576 5.6011 550.029C12.8376 541.931 35.581 536.762 63.3211 536.762H69.1792C71.5914 536.762 73.8313 537.795 75.382 539.519C76.9327 541.242 77.7942 543.481 77.7942 545.894C77.6219 549.684 77.4479 552.958 77.4479 552.441L98.1237 552.786C118.455 553.13 118.799 553.13 118.627 556.921C118.455 562.09 120.006 561.917 131.894 554.681C142.749 548.133 147.401 541.586 171.351 499.201C179.449 484.728 186.342 474.734 192.545 468.015C217.184 441.136 273.698 464.741 255.262 523.667ZM215.114 469.048C210.118 473.011 204.604 484.383 198.746 502.991C186.685 541.242 159.634 568.809 122.245 580.87L117.077 582.593C116.732 593.448 115.009 680.286 114.492 711.817L131.379 712.851C148.609 714.057 196.506 720.949 211.668 724.567C234.584 729.908 260.946 717.675 260.946 701.824C260.946 699.067 261.807 696.827 262.669 696.827C274.041 696.827 291.443 667.536 284.895 659.611C283.862 658.405 285.929 655.475 290.237 651.168C301.264 640.658 302.814 636.35 301.608 618.948C300.574 604.475 300.747 603.958 304.71 601.201C316.254 593.62 318.494 569.671 308.328 563.123C305.743 561.4 292.649 559.505 269.216 557.265C221.663 552.786 224.593 556.231 232.174 514.018C238.721 480.248 229.932 457.16 215.114 469.048ZM76.2435 726.118H91.404L97.7808 571.049H80.7215C78.4817 655.303 81.4124 621.877 76.2435 726.118Z" fill="#3E2723"/>
</g>
<g opacity="0.1" clip-path="url(#clip1_2072_35)">
<path d="M1338.62 260.62C1399.79 199.447 1413.96 114.433 1370.26 70.7367C1326.57 27.0402 1241.55 41.2076 1180.38 102.38C1119.21 163.553 1105.04 248.567 1148.74 292.263C1192.43 335.96 1277.45 321.792 1338.62 260.62Z" stroke="#3E2723" stroke-width="15" stroke-linecap="round" stroke-linejoin="round"/>
<path d="M1370.26 70.7424C1335.5 77.8323 1275.4 101.938 1259.5 181.5C1243.6 261.062 1183.5 285.139 1148.74 292.258" stroke="#3E2723" stroke-width="15" stroke-linecap="round" stroke-linejoin="round"/>
</g>
</g>
<defs>
<clipPath id="clip0_2072_35">
<rect width="1440" height="778.444" fill="white"/>
</clipPath>
<clipPath id="clip1_2072_35">
<rect width="363" height="363" fill="white" transform="translate(1078)"/>
</clipPath>
</defs>
</svg>
